<svg xmlns="http://www.w3.org/2000/svg" xmlns:xlink="http://www.w3.org/1999/xlink" viewBox="0 0 40 58.9"><defs><clipPath id="clip-path"><rect width="40" height="40" rx="20" fill="none"/></clipPath><linearGradient id="Gradient_bez_nazwy_10" x1="4.42" y1="43.58" x2="35.07" y2="43.58" gradientUnits="userSpaceOnUse"><stop offset="0" stop-color="#00e5b8"/><stop offset="1" stop-color="#28c7e8"/></linearGradient><clipPath id="clip-path-2"><circle cx="19.75" cy="43.58" r="15.32" fill="none"/></clipPath><linearGradient id="Gradient_bez_nazwy_10-2" x1="12.12" y1="12.85" x2="28.22" y2="12.85" xlink:href="#Gradient_bez_nazwy_10"/></defs><title>BOT_user</title><g id="Warstwa_2" data-name="Warstwa 2"><g id="Warstwa_1-2" data-name="Warstwa 1"><g clip-path="url(#clip-path)"><rect width="40" height="40" rx="20" fill="#e0e0e0"/><rect x="11.3" y="18.56" width="2.92" height="2.15" rx="1.07" fill="#fff"/><rect x="25.27" y="18.56" width="2.92" height="2.15" rx="1.07" fill="#fff"/><circle cx="19.75" cy="43.58" r="15.32" fill="url(#Gradient_bez_nazwy_10)"/><g clip-path="url(#clip-path-2)"><path d="M19.75,33.7a5,5,0,0,1-4.93-5.23H17a2.76,2.76,0,1,0,5.49,0h2.18A5,5,0,0,1,19.75,33.7Z" fill="#343748"/></g><rect x="17.05" y="17.43" width="5.39" height="14.1" rx="2.7" fill="#fff"/><rect x="12.24" y="8.08" width="15" height="20.13" rx="7.5" fill="#fff"/><path d="M21.06,24.16a1.16,1.16,0,0,1-2.31,0Z" fill="#343748"/><circle cx="14.96" cy="17.82" r="0.74" fill="#343748"/><circle cx="24.53" cy="17.82" r="0.74" fill="#343748"/><path d="M19.75,7.17c-6.31.58-7.23,4.54-7.51,6.1a32.94,32.94,0,0,0,0,5.29A15.49,15.49,0,0,1,15,11.36s4.9,3.18,7.23,3.5a10,10,0,0,0,4.25-.15,16.57,16.57,0,0,1,.91,3.85,41.48,41.48,0,0,0,.1-4.25c.21-.1.39-.2.57-.3C29.05,13.43,26.05,6.6,19.75,7.17Z" fill="url(#Gradient_bez_nazwy_10-2)"/><path d="M20.35,22.16,20,21.84a2.66,2.66,0,0,0,.51-.78c-.72-.87-.59-3.68-.57-4l.48,0c-.05.83-.05,3.11.48,3.69C21.12,21,20.94,21.49,20.35,22.16Z" fill="#343748"/><path d="M19.75,7.17c-6.31.58-7.23,4.54-7.51,6.1a32.94,32.94,0,0,0,0,5.29A15.49,15.49,0,0,1,15,11.36s4.9,3.18,7.23,3.5a10,10,0,0,0,4.25-.15,16.57,16.57,0,0,1,.91,3.85,41.48,41.48,0,0,0,.1-4.25c.21-.1.39-.2.57-.3C29.05,13.43,26.05,6.6,19.75,7.17Z" fill="#343748" opacity="0.33"/></g></g></g></svg>