<?xml version="1.0" encoding="utf-8"?>
<!-- Generator: Adobe Illustrator 24.0.2, SVG Export Plug-In . SVG Version: 6.00 Build 0)  -->
<!DOCTYPE svg PUBLIC "-//W3C//DTD SVG 1.1//EN" "http://www.w3.org/Graphics/SVG/1.1/DTD/svg11.dtd" [
	<!ENTITY ns_extend "http://ns.adobe.com/Extensibility/1.0/">
	<!ENTITY ns_ai "http://ns.adobe.com/AdobeIllustrator/10.0/">
	<!ENTITY ns_graphs "http://ns.adobe.com/Graphs/1.0/">
	<!ENTITY ns_vars "http://ns.adobe.com/Variables/1.0/">
	<!ENTITY ns_imrep "http://ns.adobe.com/ImageReplacement/1.0/">
	<!ENTITY ns_sfw "http://ns.adobe.com/SaveForWeb/1.0/">
	<!ENTITY ns_custom "http://ns.adobe.com/GenericCustomNamespace/1.0/">
	<!ENTITY ns_adobe_xpath "http://ns.adobe.com/XPath/1.0/">
]>
<svg version="1.1" xmlns:x="&ns_extend;" xmlns:i="&ns_ai;" xmlns:graph="&ns_graphs;"
	 xmlns="http://www.w3.org/2000/svg" xmlns:xlink="http://www.w3.org/1999/xlink" x="0px" y="0px" viewBox="0 0 108 108"
	 enable-background="new 0 0 108 108" xml:space="preserve">
<metadata>
	<sfw  xmlns="&ns_sfw;">
		<slices></slices>
		<sliceSourceBounds  bottomLeftOrigin="true" height="108" width="108" x="905.6" y="-594.5"></sliceSourceBounds>
	</sfw>
</metadata>
<g id="BG">
	<rect fill="#242526" width="108" height="108"/>
</g>
<g id="BODY">
	<g>
		<g>
			<linearGradient id="SVGID_1_" gradientUnits="userSpaceOnUse" x1="26.5163" y1="54.7353" x2="81.8849" y2="54.7353">
				<stop  offset="0" style="stop-color:#00E5B8"/>
				<stop  offset="1" style="stop-color:#28C7E8"/>
			</linearGradient>
			<path fill="url(#SVGID_1_)" d="M70.9,29.3H37.5c-6,0-11,4.9-11,11v20c0,6,4.9,11,11,11h29v8.9c0,0,12.2-12.1,12.2-12.1l0,0
				c2-2,3.2-4.7,3.2-7.7v-20C81.9,34.3,77,29.3,70.9,29.3z"/>
		</g>
	</g>
</g>
<g id="EKRAN">
	<g>
		<path fill="#FFFFFF" d="M76.7,49.4c0,6.1-5,11.1-11.1,11.1H43c-6.1,0-11.1-5-11.1-11.1v0c0-6.1,5-11.1,11.1-11.1h22.6
			C71.7,38.3,76.7,43.3,76.7,49.4L76.7,49.4z"/>
	</g>
</g>
<g id="PASZCZA">
	<g>
		<path fill="#343748" d="M54.2,54.8c1.7,0,3-1.4,3-3h-6C51.2,53.4,52.5,54.8,54.2,54.8z"/>
		<path fill="#343748" d="M41.2,43.9c-1.1,0-1.9,0.9-1.9,1.9c0,1.1,0.9,1.9,1.9,1.9c1.1,0,1.9-0.9,1.9-1.9
			C43.2,44.7,42.3,43.9,41.2,43.9z"/>
		<path fill="#343748" d="M66.3,43.9c-1.1,0-1.9,0.9-1.9,1.9c0,1.1,0.9,1.9,1.9,1.9c1.1,0,1.9-0.9,1.9-1.9
			C68.3,44.7,67.4,43.9,66.3,43.9z"/>
	</g>
</g>
</svg>
