<?xml version="1.0" encoding="utf-8"?>
<!-- Generator: Adobe Illustrator 24.0.2, SVG Export Plug-In . SVG Version: 6.00 Build 0)  -->
<svg version="1.1" id="LOGO" xmlns="http://www.w3.org/2000/svg" xmlns:xlink="http://www.w3.org/1999/xlink" x="0px" y="0px"
	 viewBox="0 0 300 275" style="enable-background:new 0 0 300 275;" xml:space="preserve">
<style type="text/css">
	.st0{fill:#242526;}
</style>
<g>
	<path class="st0" d="M240.7,0H59.3C26.7,0,0,26.7,0,59.3v108.3C0,200.3,26.7,227,59.3,227h157.3v48c0,0,65.9-65.5,66-65.6l0.1-0.1
		c10.6-10.7,17.2-25.5,17.2-41.7V59.3C300,26.7,273.3,0,240.7,0z M271.8,109.4c0,33-27,59.9-59.9,59.9H89.3c-33,0-59.9-27-59.9-59.9
		v0c0-33,27-59.9,59.9-59.9h122.5C244.8,49.4,271.8,76.4,271.8,109.4L271.8,109.4z"/>
	<g>
		<path class="st0" d="M150,139.1c9,0,16.3-7.3,16.3-16.3h-32.7C133.7,131.8,141,139.1,150,139.1z"/>
		<circle class="st0" cx="79.8" cy="90.5" r="10.5"/>
		<circle class="st0" cx="215.7" cy="90.5" r="10.5"/>
	</g>
</g>
</svg>
