<?xml version="1.0" encoding="utf-8"?>
<!-- Generator: Adobe Illustrator 24.0.2, SVG Export Plug-In . SVG Version: 6.00 Build 0)  -->
<!DOCTYPE svg PUBLIC "-//W3C//DTD SVG 1.1//EN" "http://www.w3.org/Graphics/SVG/1.1/DTD/svg11.dtd" [
	<!ENTITY ns_extend "http://ns.adobe.com/Extensibility/1.0/">
	<!ENTITY ns_ai "http://ns.adobe.com/AdobeIllustrator/10.0/">
	<!ENTITY ns_graphs "http://ns.adobe.com/Graphs/1.0/">
	<!ENTITY ns_vars "http://ns.adobe.com/Variables/1.0/">
	<!ENTITY ns_imrep "http://ns.adobe.com/ImageReplacement/1.0/">
	<!ENTITY ns_sfw "http://ns.adobe.com/SaveForWeb/1.0/">
	<!ENTITY ns_custom "http://ns.adobe.com/GenericCustomNamespace/1.0/">
	<!ENTITY ns_adobe_xpath "http://ns.adobe.com/XPath/1.0/">
]>
<svg version="1.1" xmlns:x="&ns_extend;" xmlns:i="&ns_ai;" xmlns:graph="&ns_graphs;"
	 xmlns="http://www.w3.org/2000/svg" xmlns:xlink="http://www.w3.org/1999/xlink" x="0px" y="0px" viewBox="0 0 155 195"
	 enable-background="new 0 0 155 195" xml:space="preserve">
<metadata>
	<sfw  xmlns="&ns_sfw;">
		<slices></slices>
		<sliceSourceBounds  bottomLeftOrigin="true" height="194.8" width="16383" x="-7231" y="-637.8"></sliceSourceBounds>
	</sfw>
</metadata>
<g id="BG">
	<path fill="#E0E0E0" d="M77.5,154L77.5,154c-42.5,0-77-34.5-77-77v0c0-42.5,34.5-77,77-77h0c42.5,0,77,34.5,77,77v0
		C154.5,119.5,120,154,77.5,154z"/>
</g>
<g id="BODY">
	<g>
		<linearGradient id="SVGID_1_" gradientUnits="userSpaceOnUse" x1="30.8533" y1="153.0738" x2="124.4491" y2="153.0738">
			<stop  offset="0" style="stop-color:#00E5B8"/>
			<stop  offset="1" style="stop-color:#28C7E8"/>
		</linearGradient>
		<path fill="url(#SVGID_1_)" d="M112.7,111.4H42.6c-6.5,0-11.7,5.3-11.7,11.7v23c0,33.2,26,48.6,46.8,48.6
			c25.2,0,46.8-19.6,46.8-49.4v-22.2C124.4,116.6,119.2,111.4,112.7,111.4z"/>
		<linearGradient id="SVGID_2_" gradientUnits="userSpaceOnUse" x1="25.1939" y1="67.8914" x2="130.044" y2="67.8914">
			<stop  offset="0" style="stop-color:#00E5B8"/>
			<stop  offset="1" style="stop-color:#28C7E8"/>
		</linearGradient>
		<path fill="url(#SVGID_2_)" d="M124.6,58v-5c0-10.1-8.3-18.4-18.4-18.4H85c-1.1-3-4-5.1-7.3-5.1s-6.2,2.1-7.3,5.1H49.2
			c-10.1,0-18.4,8.3-18.4,18.4v5h0c-3.1,0-5.6,2.5-5.6,5.6v12.2c0,3.1,2.5,5.6,5.6,5.6h0v6.5c0,10.1,8.3,18.4,18.4,18.4h57
			c10.1,0,18.4-8.3,18.4-18.4v-6.5c3-0.1,5.4-2.6,5.4-5.6V63.6C130,60.6,127.6,58.1,124.6,58z"/>
	</g>
</g>
<g id="EKRAN">
	<g>
		<g>
			<path fill="#FFFFFF" d="M56.8,144c-1.8,0-3.3,1.5-3.3,3.3c0,1.8,1.5,3.3,3.3,3.3s3.3-1.5,3.3-3.3C60.1,145.5,58.6,144,56.8,144z"
				/>
		</g>
		<g>
			<path fill="#FFFFFF" d="M98.5,144c-1.8,0-3.3,1.5-3.3,3.3c0,1.8,1.5,3.3,3.3,3.3c1.8,0,3.3-1.5,3.3-3.3
				C101.8,145.5,100.3,144,98.5,144z"/>
		</g>
		<g>
			<path fill="#FFFFFF" d="M56.8,155.6c-1.8,0-3.3,1.5-3.3,3.3s1.5,3.3,3.3,3.3s3.3-1.5,3.3-3.3S58.6,155.6,56.8,155.6z"/>
		</g>
		<g>
			<path fill="#FFFFFF" d="M87.5,156.4h-20c-1.4,0-2.5,1.1-2.5,2.5s1.1,2.5,2.5,2.5h20c1.4,0,2.5-1.1,2.5-2.5S88.9,156.4,87.5,156.4
				z"/>
		</g>
		<g>
			<path fill="#FFFFFF" d="M101.2,49.8H54.5c-8,0-14.6,6.5-14.6,14.6v8.4c0,8,6.5,14.6,14.6,14.6h46.7c8,0,14.6-6.5,14.6-14.6v-8.4
				C115.8,56.3,109.2,49.8,101.2,49.8z"/>
		</g>
		<g>
			<path fill="#FFFFFF" d="M77.7,20.5c1.9,0,3.4-1.5,3.4-3.4s-1.5-3.4-3.4-3.4s-3.4,1.5-3.4,3.4S75.8,20.5,77.7,20.5z"/>
		</g>
	</g>
</g>
<g id="PASZCZA">
	<g>
		<path fill="#343748" d="M69.6,112.6c0,4.8,3.9,8.7,8.7,8.7c4.8,0,8.7-3.9,8.7-8.7v-6.3H69.6V112.6z"/>
		<path fill="#343748" d="M77.7,77.7c2.8,0,5.1-2.3,5.1-5.1H72.6C72.6,75.4,74.9,77.7,77.7,77.7z"/>
		<path fill="#343748" d="M55.7,59.2c-1.8,0-3.3,1.5-3.3,3.3c0,1.8,1.5,3.3,3.3,3.3c1.8,0,3.3-1.5,3.3-3.3
			C59,60.7,57.5,59.2,55.7,59.2z"/>
		<path fill="#343748" d="M98.2,59.2c-1.8,0-3.3,1.5-3.3,3.3c0,1.8,1.5,3.3,3.3,3.3c1.8,0,3.3-1.5,3.3-3.3
			C101.5,60.7,100,59.2,98.2,59.2z"/>
		<path fill="#343748" d="M79.3,29.7v-9.5c-0.5,0.2-1,0.4-1.6,0.4s-1.1-0.2-1.6-0.4v9.5c0.5-0.1,1-0.2,1.6-0.2S78.8,29.6,79.3,29.7z
			"/>
	</g>
</g>
<g id="CIENIE">
	<g opacity="0.2">
		<path fill="#343748" d="M77.7,29.5c-3.4,0-6.2,2.1-7.3,5.1l14.7,0C83.9,31.6,81.1,29.5,77.7,29.5z"/>
		<path fill="#343748" d="M107.8,101.4H48.9c-18.1,0-18.1-15.8-18.1-15.8v2.3c0,10.1,8.3,18.4,18.4,18.4h57
			c10.1,0,18.4-8.3,18.4-18.4v-2.3C124.6,85.6,123.5,101.4,107.8,101.4z"/>
		<path fill="#343748" d="M94.1,111.4h-7c0,4.9-3,9.8-8.8,9.8c-5.8,0-8.8-4.9-8.8-9.8h-7c0,9.6,6.8,16.8,15.8,16.8
			C87.3,128.2,94.1,120.9,94.1,111.4z"/>
		<path fill="#343748" d="M77.5,187.8c-34.8,0-43.8-24.1-43.8-24.1c7.2,21.1,27.3,31.1,44,31.1c19.6,0,37-11.8,43.8-31.1
			C121.4,163.7,112.6,187.8,77.5,187.8z"/>
		<path fill="#343748" d="M30.8,58L30.8,58c-3.1,0-5.6,2.5-5.6,5.6v12.2c0,3.1,2.5,5.6,5.6,5.6h0V58z"/>
		<path fill="#343748" d="M124.4,58v23.4c3.1,0,5.6-2.5,5.6-5.6V63.6C130,60.5,127.5,58,124.4,58z"/>
	</g>
</g>
</svg>
