<svg xmlns="http://www.w3.org/2000/svg" xmlns:xlink="http://www.w3.org/1999/xlink" viewBox="0 0 40 50.06"><defs><linearGradient id="Gradient_bez_nazwy_10" x1="40" y1="20" x2="0" y2="20" gradientUnits="userSpaceOnUse"><stop offset="0" stop-color="#00e5b8"/><stop offset="1" stop-color="#28c7e8"/></linearGradient><clipPath id="clip-path"><rect width="40" height="40" rx="20" fill="none"/></clipPath></defs><title>BOT_bot</title><g id="Warstwa_2" data-name="Warstwa 2"><g id="Warstwa_1-2" data-name="Warstwa 1"><rect width="40" height="40" rx="20" fill="url(#Gradient_bez_nazwy_10)"/><g clip-path="url(#clip-path)"><path d="M20,50.06h0A12,12,0,0,1,8,38V31.66a3,3,0,0,1,3-3H29a3,3,0,0,1,3,3V38A12,12,0,0,1,20,50.06Z" fill="#afb9bc"/><path d="M20,46.06h0c-5.35,0-12-1-12-13V31.66a3,3,0,0,1,3-3H29a3,3,0,0,1,3,3V33C32,45.11,26.47,46.06,20,46.06Z" fill="#edeef0"/><rect x="17.93" y="19.56" width="4.45" height="11.62" rx="2.22" fill="#343748"/><rect x="19.6" y="4.67" width="0.8" height="3.46" fill="#818384"/><path d="M18,9.64a2,2,0,0,1,4,0" fill="#afb9bc"/><path d="M8.23,20.94h0A1.45,1.45,0,0,1,6.79,19.5V16.38a1.45,1.45,0,0,1,1.44-1.44h0" fill="#afb9bc"/><path d="M31.75,14.94h0a1.44,1.44,0,0,1,1.43,1.44V19.5a1.44,1.44,0,0,1-1.43,1.44h0" fill="#afb9bc"/><rect x="8.25" y="8.94" width="23.5" height="18.4" rx="4.92" fill="#edeef0"/><circle cx="20" cy="4.45" r="0.88" fill="#edeef0"/><rect x="10.32" y="12.83" width="19.46" height="9.62" rx="4.81" fill="#343748"/><path d="M21.31,18.69a1.31,1.31,0,0,1-2.62,0Z" fill="#2bc3ec"/><circle cx="14.36" cy="16.1" r="0.84" fill="#2bc3ec"/><circle cx="25.27" cy="16.1" r="0.84" fill="#2bc3ec"/><path d="M31.75,22.73a4.63,4.63,0,0,1-4.62,4.61H12.87a4.63,4.63,0,0,1-4.62-4.61s0,3.37,4.53,3.37H27.54A3.87,3.87,0,0,0,31.75,22.73Z" fill="#afb9bc"/><path d="M20.15,33a4.1,4.1,0,0,1-4-4.32h1.79a2.27,2.27,0,1,0,4.52,0h1.8A4.1,4.1,0,0,1,20.15,33Z" fill="#afb9bc"/></g></g></g></svg>