<svg xmlns="http://www.w3.org/2000/svg" xmlns:xlink="http://www.w3.org/1999/xlink" viewBox="0 0 80 100.11"><defs><linearGradient id="Gradient_bez_nazwy_10" x1="80" y1="40" x2="0" y2="40" gradientUnits="userSpaceOnUse"><stop offset="0" stop-color="#00e5b8"/><stop offset="1" stop-color="#28c7e8"/></linearGradient></defs><title>BOT_robot</title><g id="Warstwa_2" data-name="Warstwa 2"><g id="Warstwa_1-2" data-name="Warstwa 1"><rect width="80" height="80" rx="39.89" fill="url(#Gradient_bez_nazwy_10)"/><path d="M22,57.29H58a6,6,0,0,1,6,6V76.09a24,24,0,0,1-24,24h0a24,24,0,0,1-24-24V63.32a6,6,0,0,1,6-6Z" fill="#afb9bc"/><path d="M40,92.13h0c-10.7,0-24-1.91-24-26.08V63.32a6,6,0,0,1,6-6H58a6,6,0,0,1,6,6v2.73C64,90.22,52.93,92.13,40,92.13Z" fill="#edeef0"/><rect x="35.86" y="39.13" width="8.89" height="23.24" rx="4.45" fill="#343748"/><rect x="39.2" y="9.34" width="1.61" height="6.92" fill="#818384"/><path d="M36,19.27a4,4,0,0,1,8,0" fill="#afb9bc"/><path d="M16.46,41.88h0A2.89,2.89,0,0,1,13.59,39V32.76a2.89,2.89,0,0,1,2.87-2.88h0" fill="#afb9bc"/><path d="M63.5,29.88h0a2.89,2.89,0,0,1,2.87,2.88V39a2.89,2.89,0,0,1-2.87,2.88h0" fill="#afb9bc"/><rect x="16.5" y="17.88" width="46.99" height="36.8" rx="9.85" fill="#edeef0"/><circle cx="29.28" cy="75.73" r="1.67" fill="#2bc3ec"/><circle cx="50.68" cy="75.73" r="1.67" fill="#00e6b8"/><circle cx="29.28" cy="81.67" r="1.67" fill="#00e6b8"/><line x1="34.74" y1="81.67" x2="45.03" y2="81.67" fill="none" stroke="#2bc3ec" stroke-linecap="round" stroke-miterlimit="10" stroke-width="5"/><circle cx="40" cy="8.9" r="1.76" fill="#edeef0"/><rect x="20.64" y="25.67" width="38.91" height="19.25" rx="9.62" fill="#343748"/><path d="M42.62,37.38a2.62,2.62,0,0,1-5.24,0Z" fill="#2bc3ec"/><circle cx="28.72" cy="32.19" r="1.68" fill="#2bc3ec"/><circle cx="50.55" cy="32.19" r="1.68" fill="#2bc3ec"/><path d="M63.5,45.45a9.26,9.26,0,0,1-9.23,9.23H25.73a9.26,9.26,0,0,1-9.23-9.23s0,6.76,9.07,6.76h29.5C62.93,52.21,63.5,45.45,63.5,45.45Z" fill="#afb9bc"/><path d="M40.31,65.92c-4.63,0-8.12-3.71-8.12-8.63h3.6c0,2.5,1.55,5,4.52,5s4.52-2.53,4.52-5h3.59C48.42,62.21,44.93,65.92,40.31,65.92Z" fill="#afb9bc"/></g></g></svg>