<svg xmlns="http://www.w3.org/2000/svg" viewBox="0 0 65 65"><title>skin_light</title><g id="Warstwa_2" data-name="Warstwa 2"><g id="Warstwa_1-2" data-name="Warstwa 1"><rect width="65" height="65" fill="#c4cad7"/><rect x="18.23" y="20.94" width="28.54" height="15.93" rx="6.05" fill="#1dcfdb"/><path d="M42.53,17H22.47a6.58,6.58,0,0,0-6.57,6.56v12a6.58,6.58,0,0,0,6.57,6.56H39.88v5.34l7.3-7.28h0a6.53,6.53,0,0,0,1.91-4.61v-12A6.58,6.58,0,0,0,42.53,17ZM46,29a6.65,6.65,0,0,1-6.64,6.63H25.79A6.65,6.65,0,0,1,19.15,29h0a6.65,6.65,0,0,1,6.64-6.63H39.34A6.65,6.65,0,0,1,46,29Z" fill="#edeef0"/><path d="M32.5,32.25a1.81,1.81,0,0,0,1.81-1.81H30.69A1.81,1.81,0,0,0,32.5,32.25Z" fill="#edeef0"/><circle cx="24.73" cy="26.87" r="1.16" fill="#edeef0"/><circle cx="39.77" cy="26.87" r="1.16" fill="#edeef0"/></g></g></svg>