<?xml version="1.0" encoding="utf-8"?>
<!-- Generator: Adobe Illustrator 24.0.2, SVG Export Plug-In . SVG Version: 6.00 Build 0)  -->
<!DOCTYPE svg PUBLIC "-//W3C//DTD SVG 1.1//EN" "http://www.w3.org/Graphics/SVG/1.1/DTD/svg11.dtd" [
	<!ENTITY ns_extend "http://ns.adobe.com/Extensibility/1.0/">
	<!ENTITY ns_ai "http://ns.adobe.com/AdobeIllustrator/10.0/">
	<!ENTITY ns_graphs "http://ns.adobe.com/Graphs/1.0/">
	<!ENTITY ns_vars "http://ns.adobe.com/Variables/1.0/">
	<!ENTITY ns_imrep "http://ns.adobe.com/ImageReplacement/1.0/">
	<!ENTITY ns_sfw "http://ns.adobe.com/SaveForWeb/1.0/">
	<!ENTITY ns_custom "http://ns.adobe.com/GenericCustomNamespace/1.0/">
	<!ENTITY ns_adobe_xpath "http://ns.adobe.com/XPath/1.0/">
]>
<svg version="1.1" xmlns:x="&ns_extend;" xmlns:i="&ns_ai;" xmlns:graph="&ns_graphs;"
	 xmlns="http://www.w3.org/2000/svg" xmlns:xlink="http://www.w3.org/1999/xlink" x="0px" y="0px" viewBox="0 0 60 60"
	 enable-background="new 0 0 60 60" xml:space="preserve">
<metadata>
	<sfw  xmlns="&ns_sfw;">
		<slices></slices>
		<sliceSourceBounds  bottomLeftOrigin="true" height="88.4" width="60" x="929.6" y="-584.6"></sliceSourceBounds>
	</sfw>
</metadata>
<g id="BG">
	<path fill="#E0E0E0" d="M30,60L30,60C13.4,60,0,46.6,0,30v0C0,13.4,13.4,0,30,0h0c16.6,0,30,13.4,30,30v0C60,46.6,46.6,60,30,60z"
		/>
</g>
<g id="GLOWA">
	<g>
		<defs>
			<circle id="SVGID_1_" cx="29.6" cy="65.4" r="23"/>
		</defs>
		<clipPath id="SVGID_2_">
			<use xlink:href="#SVGID_1_"  overflow="visible"/>
		</clipPath>
	</g>
	<path fill="#FFFFFF" d="M40.9,27.9v-4.5c0-6.2-5.1-11.3-11.3-11.3s-11.3,5.1-11.3,11.3v4.5c-0.8,0.1-1.4,0.8-1.4,1.6v0
		c0,0.8,0.6,1.5,1.4,1.6v0c0,4.8,3,8.8,7.2,10.5v1.7c0,2.2,1.8,4,4,4s4-1.8,4-4v-1.7c4.2-1.6,7.2-5.7,7.2-10.5v0
		c0.8-0.1,1.4-0.8,1.4-1.6v0C42.3,28.6,41.7,28,40.9,27.9z"/>
	<path fill="none" d="M30,60L30,60C13.4,60,0,46.6,0,30v0C0,13.4,13.4,0,30,0h0c16.6,0,30,13.4,30,30v0C60,46.6,46.6,60,30,60z"/>
</g>
<g id="BODY">
	<g>
		<linearGradient id="SVGID_3_" gradientUnits="userSpaceOnUse" x1="18.1834" y1="19.2719" x2="42.3253" y2="19.2719">
			<stop  offset="0" style="stop-color:#00E5B8"/>
			<stop  offset="1" style="stop-color:#28C7E8"/>
		</linearGradient>
		<path fill="url(#SVGID_3_)" d="M29.6,10.8c-9.5,0.9-10.8,6.8-11.3,9.1c-0.4,2.3,0,7.9,0,7.9s0.5-6.2,4.1-10.8
			c0,0,7.4,4.8,10.8,5.2c3,0.4,5,0.2,6.4-0.2c1.1,3.1,1.2,5.8,1.2,5.8s0.4-3.7,0.3-6.4c0.3-0.2,0.6-0.3,0.8-0.5
			C43.6,20.1,39.1,9.9,29.6,10.8z"/>
	</g>
	<linearGradient id="SVGID_4_" gradientUnits="userSpaceOnUse" x1="10.4273" y1="51.3745" x2="49.0811" y2="51.3745">
		<stop  offset="0" style="stop-color:#00E5B8"/>
		<stop  offset="1" style="stop-color:#28C7E8"/>
	</linearGradient>
	<path fill="url(#SVGID_4_)" d="M33.7,42.8v0.5c0,2.2-1.8,4-4,4s-4-1.8-4-4v-0.5c-6.3,1.1-11.7,4.8-15.1,10C15.7,57.3,22.5,60,30,60
		h0c7.2,0,13.9-2.6,19.1-6.8C45.7,47.8,40.2,43.9,33.7,42.8z"/>
</g>
<g id="Warstwa_6">
	<path fill="#343748" d="M31.6,36.2c0,1-0.8,1.7-1.7,1.7c-1,0-1.7-0.8-1.7-1.7H31.6z"/>
	<circle fill="#343748" cx="22.4" cy="26.7" r="1.1"/>
	<circle fill="#343748" cx="36.8" cy="26.7" r="1.1"/>
	<path fill="#343748" d="M30.5,33.2L30,32.8c0.4-0.4,0.7-1,0.8-1.2c-1.1-1.3-0.9-5.5-0.9-6l0.7,0c-0.1,1.2-0.1,4.7,0.7,5.5
		C31.7,31.5,31.4,32.2,30.5,33.2z"/>
	<path fill="#343748" d="M37,43.6c-1-0.4-2.1-0.6-3.2-0.8c0,2.3-1.4,4.5-4.1,4.5c-2.7,0-4.1-2.3-4.1-4.5c-1.1,0.2-2.2,0.5-3.2,0.8
		c0.4,4,3.4,7,7.3,7C33.5,50.6,36.6,47.6,37,43.6z"/>
</g>
<g id="CIENIE">
	<path opacity="0.33" fill="#343748" d="M29.6,10.8c-9.5,0.9-10.8,6.8-11.3,9.1c-0.4,2.3,0,7.9,0,7.9s0.5-6.2,4.1-10.8
		c0,0,7.4,4.8,10.8,5.2c3,0.4,5,0.2,6.4-0.2c1.1,3.1,1.2,5.8,1.2,5.8s0.4-3.7,0.3-6.4c0.3-0.2,0.6-0.3,0.8-0.5
		C43.6,20.1,39.1,9.9,29.6,10.8z"/>
</g>
</svg>
